<?xml version="1.0" encoding="UTF-8"?>
<!-- Generator: Adobe Illustrator 16.0.3, SVG Export Plug-In . SVG Version: 6.00 Build 0)  -->
<!DOCTYPE svg PUBLIC "-//W3C//DTD SVG 1.0//EN" "http://www.w3.org/TR/2001/REC-SVG-20010904/DTD/svg10.dtd">
<svg version="1.0" id="Layer_1" xmlns:x="http://ns.adobe.com/Extensibility/1.0/" xmlns:i="http://ns.adobe.com/AdobeIllustrator/10.0/" xmlns:graph="http://ns.adobe.com/Graphs/1.0/" xmlns="http://www.w3.org/2000/svg" xmlns:xlink="http://www.w3.org/1999/xlink" xmlns:a="http://ns.adobe.com/AdobeSVGViewerExtensions/3.0/" x="0px" y="0px" width="474.2px" height="95.6px" viewBox="-136.8 21.3 474.2 95.6" enable-background="new -136.8 21.3 474.2 95.6" xml:space="preserve"><script xmlns=""/>
<g>
	<g>
		<defs>
			<polyline id="SVGID_1_" points="-25,59.5 -25,114 337.4,114 337.4,59.5    "/>
		</defs>
		<clipPath id="SVGID_2_">
			<use xlink:href="#SVGID_1_" overflow="visible"/>
		</clipPath>
		<rect x="157.2" y="59.5" clip-path="url(#SVGID_2_)" fill="#666D8D" width="15.4" height="30.5"/>
	</g>
</g>
<g>
	<g>
		<g>
			<defs>
				<polyline id="SVGID_3_" points="-25,59.5 -25,114 337.4,114 337.4,59.5     "/>
			</defs>
			<clipPath id="SVGID_4_">
				<use xlink:href="#SVGID_3_" overflow="visible"/>
			</clipPath>
			<path clip-path="url(#SVGID_4_)" fill="#161A3C" d="M188.3,78.7c0,0.5,0.3,1,0.9,1c0.5,0,0.9-0.4,0.9-1c0-0.5-0.5-0.9-0.9-0.9     C188.7,77.8,188.3,78.2,188.3,78.7 M191,90v-0.4h-1.1v-7.1c-0.7,0.1-1.4,0.2-2.1,0.2h-0.6v0.4h1.2v6.5h-1.2V90H191L191,90z"/>
		</g>
	</g>
</g>
<g>
	<g>
		<g>
			<defs>
				<polyline id="SVGID_5_" points="-25,59.5 -25,114 337.4,114 337.4,59.5     "/>
			</defs>
			<clipPath id="SVGID_6_">
				<use xlink:href="#SVGID_5_" overflow="visible"/>
			</clipPath>
			<path clip-path="url(#SVGID_6_)" fill="#161A3C" d="M194.1,89.5h-1v0.4h3.4v-0.4h-1v-3.4c0-1.4,0.9-3.1,2.2-3.1     c0.7,0,1.1,0.2,1.1,1.5v5h-0.9v0.4h3.4v-0.4h-1v-5.2c0-1.7-1.5-1.9-2.2-1.9c-1.3,0-2.1,0.8-2.6,1.9l0,0v-1.9     c-0.3,0.1-0.7,0.1-1,0.1c-0.3,0.1-0.7,0.1-1,0.1h-0.4v0.5h1V89.5"/>
		</g>
	</g>
</g>
<g>
	<g>
		<g>
			<defs>
				<polyline id="SVGID_7_" points="-25,59.5 -25,114 337.4,114 337.4,59.5     "/>
			</defs>
			<clipPath id="SVGID_8_">
				<use xlink:href="#SVGID_7_" overflow="visible"/>
			</clipPath>
			<path clip-path="url(#SVGID_8_)" fill="#161A3C" d="M205.5,82.7v-2.1c0-1.9,0.6-2.9,1.5-2.9c0.1,0,0.5,0,0.5,0.1     c0,0.3-0.1,0.3-0.1,0.5c0,0.5,0.3,0.9,0.7,0.9c0.3,0,0.7-0.3,0.7-0.6c0-0.9-0.8-1.2-1.5-1.2c-1.7,0-3.1,1.3-3.1,4.5v0.9h-1.4v0.3     h1.4v6.5h-1.4V90h4.4v-0.4h-1.5v-6.5h1.5v-0.4H205.5"/>
		</g>
	</g>
</g>
<g>
	<g>
		<g>
			<defs>
				<polyline id="SVGID_9_" points="-25,59.5 -25,114 337.4,114 337.4,59.5     "/>
			</defs>
			<clipPath id="SVGID_10_">
				<use xlink:href="#SVGID_9_" overflow="visible"/>
			</clipPath>
			<path clip-path="url(#SVGID_10_)" fill="#161A3C" d="M212.5,82.9c1.9,0,1.9,2,1.9,3.5s0,3.5-1.9,3.5c-1.9,0-1.9-2-1.9-3.5     C210.7,84.8,210.7,82.9,212.5,82.9 M212.5,82.5c-1.9,0-3.6,1.6-3.6,3.8c0,2.2,1.6,3.9,3.6,3.9s3.6-1.6,3.6-3.9     C216.1,84,214.5,82.5,212.5,82.5z"/>
		</g>
	</g>
</g>
<g>
	<g>
		<g>
			<defs>
				<polyline id="SVGID_11_" points="-25,59.5 -25,114 337.4,114 337.4,59.5     "/>
			</defs>
			<clipPath id="SVGID_12_">
				<use xlink:href="#SVGID_11_" overflow="visible"/>
			</clipPath>
			<path clip-path="url(#SVGID_12_)" fill="#161A3C" d="M220.4,82.5c-0.7,0.1-1.4,0.2-2.1,0.2h-0.6v0.4h1.3v6.5h-1.3V90h4.1v-0.4     h-1.4V86c0-0.7,0.2-1.5,0.5-2c0.4-0.8,1-1.1,1.1-1.1c0.1,0,0.1,0,0.1,0.1c0,0.1-0.1,0.3-0.1,0.4c0,0.4,0.4,0.7,0.7,0.7     c0.4,0,0.9-0.2,0.9-0.7c0-0.7-0.5-1-1.1-1c-1,0-1.7,0.9-2.1,1.7l0,0V82.5"/>
		</g>
	</g>
</g>
<g>
	<g>
		<g>
			<defs>
				<polyline id="SVGID_13_" points="-25,59.5 -25,114 337.4,114 337.4,59.5     "/>
			</defs>
			<clipPath id="SVGID_14_">
				<use xlink:href="#SVGID_13_" overflow="visible"/>
			</clipPath>
			<path clip-path="url(#SVGID_14_)" fill="#161A3C" d="M236.3,89.5v-4.9c0-1.9-1.3-2.2-2-2.2c-1.2,0-2,0.7-2.6,1.8h-0.1     c-0.1-1.1-0.9-1.8-2-1.8c-1.3,0-1.9,0.7-2.5,1.8H227v-1.8c-0.7,0.1-1.4,0.2-2.1,0.2h-0.3V83h0.9v6.5h-0.9v0.4h3.4v-0.4h-1V86     c0-1.4,0.9-3,2.1-3c0.6,0,1,0.4,1,1.3v5.2h-1v0.4h3.4v-0.4h-1v-3.9c0-1,0.9-2.7,2.1-2.7c0.6,0,1,0.4,1,1.3v5.2h-1v0.4h3.4v-0.4     L236.3,89.5"/>
		</g>
	</g>
</g>
<g>
	<g>
		<g>
			<defs>
				<polyline id="SVGID_15_" points="-25,59.5 -25,114 337.4,114 337.4,59.5     "/>
			</defs>
			<clipPath id="SVGID_16_">
				<use xlink:href="#SVGID_15_" overflow="visible"/>
			</clipPath>
			<path clip-path="url(#SVGID_16_)" fill="#161A3C" d="M243.7,87.8c0,0.8-0.3,1-0.4,1.1c-0.5,0.4-0.8,0.5-1.4,0.5     c-0.9,0-1.4-0.5-1.4-1.5c0-1.7,2.1-1.9,3.2-2V87.8 M246.2,88.7c-0.1,0.3-0.3,0.8-0.7,0.8c-0.4,0-0.4-0.3-0.4-0.9v-4.4     c0-0.7,0-1.8-2.5-1.8c-2.2,0-3,1.1-3,1.7c0,0.5,0.3,0.9,0.8,0.9s0.7-0.3,0.7-0.7c0-0.6-0.5-0.7-0.5-0.9c0-0.5,1.3-0.7,1.7-0.7     c0.7,0,1.3,0.3,1.3,1.1v1.9c-2.8,0-4.6,0.9-4.6,2.7c0,1.3,1,1.8,2.2,1.8c0.9,0,1.9-0.3,2.5-1.1c0.1,0.7,0.5,1.1,1.2,1.1     c0.9,0,1.5-0.7,1.5-1.5H246.2z"/>
		</g>
	</g>
</g>
<g>
	<g>
		<g>
			<defs>
				<polyline id="SVGID_17_" points="-25,59.5 -25,114 337.4,114 337.4,59.5     "/>
			</defs>
			<clipPath id="SVGID_18_">
				<use xlink:href="#SVGID_17_" overflow="visible"/>
			</clipPath>
			<path clip-path="url(#SVGID_18_)" fill="#161A3C" d="M247.7,83.1h1.1v5.5c0,0.9,0.1,1.6,1.5,1.6c0.7,0,1.6-0.4,2-1.1l-0.3-0.2     c-0.3,0.3-0.5,0.7-1,0.7c-0.7,0-0.7-0.5-0.7-0.8v-5.6h1.6v-0.4h-1.6v-2.4c-0.5,0.1-0.9,0.1-1.4,0.1v2.3h-1.1v0.4"/>
		</g>
	</g>
</g>
<g>
	<g>
		<g>
			<defs>
				<polyline id="SVGID_19_" points="-25,59.5 -25,114 337.4,114 337.4,59.5     "/>
			</defs>
			<clipPath id="SVGID_20_">
				<use xlink:href="#SVGID_19_" overflow="visible"/>
			</clipPath>
			<path clip-path="url(#SVGID_20_)" fill="#161A3C" d="M254.9,78.7c0,0.5,0.3,1,0.9,1c0.5,0,0.9-0.4,0.9-1c0-0.5-0.5-0.9-0.9-0.9     C255.3,77.8,254.9,78.2,254.9,78.7 M257.6,90v-0.4h-1.1v-7.1c-0.7,0.1-1.4,0.2-2.1,0.2h-0.6v0.4h1.2v6.5h-1.2V90H257.6L257.6,90z     "/>
		</g>
	</g>
</g>
<g>
	<g>
		<g>
			<defs>
				<polyline id="SVGID_21_" points="-25,59.5 -25,114 337.4,114 337.4,59.5     "/>
			</defs>
			<clipPath id="SVGID_22_">
				<use xlink:href="#SVGID_21_" overflow="visible"/>
			</clipPath>
			<path clip-path="url(#SVGID_22_)" fill="#161A3C" d="M263.2,90v-0.4h-1.1V77.1c-0.7,0.1-1.4,0.1-2.1,0.1h-0.3v0.5h0.9v11.9h-0.9     V90H263.2 M265.3,83.1L265.3,83.1l-3.1,2.7l3.1,3.8h-0.9V90h3.5v-0.4H267l-3.5-4.2l2.6-2.2h1.1v-0.4h-3.1v0.4h1.2V83.1z"/>
		</g>
	</g>
</g>
<g>
	<g>
		<g>
			<defs>
				<polyline id="SVGID_23_" points="-25,59.5 -25,114 337.4,114 337.4,59.5     "/>
			</defs>
			<clipPath id="SVGID_24_">
				<use xlink:href="#SVGID_23_" overflow="visible"/>
			</clipPath>
			<path clip-path="url(#SVGID_24_)" fill="#161A3C" d="M198.7,72.8v-4.9c0-1.9-1.3-2.1-2-2.1c-1.2,0-2,0.7-2.6,1.7H194     c-0.1-1.1-0.9-1.7-1.9-1.7c-1.3,0-1.9,0.7-2.5,1.7h-0.1v-1.7c-0.7,0.1-1.4,0.2-2.1,0.2h-0.3v0.4h0.9v6.5h-0.9v0.4h3.4v-0.4h-1     v-3.5c0-1.4,0.9-3,2.1-3c0.6,0,1,0.4,1,1.3v5.2h-1v0.4h3.4v-0.4h-1V69c0-1,0.9-2.7,2.1-2.7c0.6,0,1,0.4,1,1.3v5.2h-1v0.4h3.4     v-0.4H198.7"/>
		</g>
	</g>
</g>
<g>
	<g>
		<g>
			<defs>
				<polyline id="SVGID_25_" points="-25,59.5 -25,114 337.4,114 337.4,59.5     "/>
			</defs>
			<clipPath id="SVGID_26_">
				<use xlink:href="#SVGID_25_" overflow="visible"/>
			</clipPath>
			<path clip-path="url(#SVGID_26_)" fill="#161A3C" d="M206,71c0,0.8-0.3,1-0.4,1.1c-0.5,0.4-0.8,0.5-1.4,0.5     c-0.9,0-1.4-0.5-1.4-1.5c0-1.7,2.1-1.9,3.2-2V71 M208.5,71.9c-0.1,0.3-0.3,0.8-0.7,0.8s-0.4-0.3-0.4-0.9v-4.4     c0-0.7,0-1.8-2.5-1.8c-2.2,0-3,1.1-3,1.7c0,0.5,0.3,0.9,0.8,0.9s0.7-0.3,0.7-0.7c0-0.6-0.5-0.7-0.5-0.9c0-0.5,1.3-0.7,1.7-0.7     c0.7,0,1.3,0.3,1.3,1.1v2c-2.8,0-4.6,0.9-4.6,2.7c0,1.3,1,1.8,2.2,1.8c0.9,0,1.9-0.3,2.5-1.1c0.1,0.7,0.5,1.1,1.2,1.1     c0.9,0,1.5-0.7,1.5-1.5L208.5,71.9L208.5,71.9z"/>
		</g>
	</g>
</g>
<g>
	<g>
		<g>
			<defs>
				<polyline id="SVGID_27_" points="-25,59.5 -25,114 337.4,114 337.4,59.5     "/>
			</defs>
			<clipPath id="SVGID_28_">
				<use xlink:href="#SVGID_27_" overflow="visible"/>
			</clipPath>
			<polyline clip-path="url(#SVGID_28_)" fill="#161A3C" points="212.6,72.8 211.6,72.8 213.4,70.2 215.2,72.8 214.2,72.8      214.2,73.2 217.6,73.2 217.6,72.8 216.7,72.8 214.2,69 216,66.3 217.1,66.3 217.1,65.9 214.5,65.9 214.5,66.3 215.5,66.3      214,68.6 212.4,66.3 213.4,66.3 213.4,65.9 209.9,65.9 209.9,66.3 210.9,66.3 213.1,69.8 211.1,72.8 209.9,72.8 209.9,73.2      212.6,73.2 212.6,72.8    "/>
		</g>
	</g>
</g>
<g>
	<g>
		<g>
			<defs>
				<polyline id="SVGID_29_" points="-25,59.5 -25,114 337.4,114 337.4,59.5     "/>
			</defs>
			<clipPath id="SVGID_30_">
				<use xlink:href="#SVGID_29_" overflow="visible"/>
			</clipPath>
			<path clip-path="url(#SVGID_30_)" fill="#161A3C" d="M226,68.2c0.3-1.8,1.7-2.1,2-2.1c1.3,0,1.9,0.9,1.9,3.6c0,3.4-1,3.4-2,3.4     c-0.5,0-1.3-0.5-1.7-1.1c-0.3-0.5-0.4-0.9-0.4-2.1C225.9,69.4,225.9,68.8,226,68.2 M224.5,77h-1.1v0.4h3.8V77h-1.3v-4.8h0.1     c0.5,0.8,1.1,1.2,2.2,1.2c2.3,0,3.5-1.9,3.5-3.7c0-2.9-2-4-3.4-4c-0.9,0-1.7,0.5-2.3,1.4h-0.1v-1.4c-0.3,0.1-0.7,0.1-1.1,0.1     c-0.3,0.1-0.7,0.1-1.1,0.1h-0.4v0.4h1.1V77H224.5z"/>
		</g>
	</g>
</g>
<g>
	<g>
		<g>
			<defs>
				<polyline id="SVGID_31_" points="-25,59.5 -25,114 337.4,114 337.4,59.5     "/>
			</defs>
			<clipPath id="SVGID_32_">
				<use xlink:href="#SVGID_31_" overflow="visible"/>
			</clipPath>
			<path clip-path="url(#SVGID_32_)" fill="#161A3C" d="M237.6,73.2v-0.4h-1.4V60.3c-0.7,0.1-1.4,0.1-2.1,0.1h-0.8v0.5h1.4v11.9     h-1.4v0.4H237.6"/>
		</g>
	</g>
</g>
<g>
	<g>
		<g>
			<defs>
				<polyline id="SVGID_33_" points="-25,59.5 -25,114 337.4,114 337.4,59.5     "/>
			</defs>
			<clipPath id="SVGID_34_">
				<use xlink:href="#SVGID_33_" overflow="visible"/>
			</clipPath>
			<path clip-path="url(#SVGID_34_)" fill="#161A3C" d="M244.1,71c0,0.8-0.3,1-0.4,1.1c-0.5,0.4-0.8,0.5-1.4,0.5     c-0.9,0-1.4-0.5-1.4-1.5c0-1.7,2.1-1.9,3.2-2V71 M246.6,71.9c-0.1,0.3-0.3,0.8-0.7,0.8c-0.4,0-0.4-0.3-0.4-0.9v-4.4     c0-0.7,0-1.8-2.5-1.8c-2.2,0-3,1.1-3,1.7c0,0.5,0.3,0.9,0.8,0.9s0.7-0.3,0.7-0.7c0-0.6-0.5-0.7-0.5-0.9c0-0.5,1.3-0.7,1.7-0.7     c0.7,0,1.3,0.3,1.3,1.1v2c-2.8,0-4.6,0.9-4.6,2.7c0,1.3,1,1.8,2.2,1.8c0.9,0,1.9-0.3,2.5-1.1c0.1,0.7,0.5,1.1,1.2,1.1     c0.9,0,1.5-0.7,1.5-1.5L246.6,71.9L246.6,71.9z"/>
		</g>
	</g>
</g>
<g>
	<g>
		<g>
			<defs>
				<polyline id="SVGID_35_" points="-25,59.5 -25,114 337.4,114 337.4,59.5     "/>
			</defs>
			<clipPath id="SVGID_36_">
				<use xlink:href="#SVGID_35_" overflow="visible"/>
			</clipPath>
			<path clip-path="url(#SVGID_36_)" fill="#161A3C" d="M249.4,72.8h-1v0.4h3.4v-0.4h-1v-3.4c0-1.4,0.9-3.1,2.2-3.1     c0.7,0,1.1,0.2,1.1,1.5v5h-0.9v0.4h3.4v-0.4h-1v-5.2c0-1.7-1.5-1.9-2.2-1.9c-1.3,0-2.1,0.8-2.6,2h-0.1v-2c-0.3,0.1-0.7,0.1-1,0.1     c-0.3,0.1-0.7,0.1-1,0.1h-0.4v0.4h1L249.4,72.8"/>
		</g>
	</g>
</g>
<g>
	<g>
		<g>
			<defs>
				<polyline id="SVGID_37_" points="-25,59.5 -25,114 337.4,114 337.4,59.5     "/>
			</defs>
			<clipPath id="SVGID_38_">
				<use xlink:href="#SVGID_37_" overflow="visible"/>
			</clipPath>
			<path clip-path="url(#SVGID_38_)" fill="#161A3C" d="M264.9,70.9c-0.5,1.3-1.5,2.2-2.6,2.2c-0.9-0.1-1.5-0.5-1.8-1.1     c-0.1-0.3-0.4-1.1-0.4-2.2c0-2.4,0.5-3.7,2.2-3.7c0.4,0,1.5,0.2,1.5,0.7c0,0.2-0.6,0.3-0.6,1c0,0.5,0.4,0.9,0.9,0.9     s0.8-0.5,0.8-1c0-1.4-1.7-2-2.9-2c-1.1,0-3.7,0.8-3.7,4.1c0,1.3,0.9,3.6,3.8,3.6c2-0.1,2.7-1.2,3.1-2.6L264.9,70.9"/>
		</g>
	</g>
</g>
<g>
	<g>
		<g>
			<defs>
				<polyline id="SVGID_39_" points="-25,59.5 -25,114 337.4,114 337.4,59.5     "/>
			</defs>
			<clipPath id="SVGID_40_">
				<use xlink:href="#SVGID_39_" overflow="visible"/>
			</clipPath>
			<path clip-path="url(#SVGID_40_)" fill="#161A3C" d="M270.8,73.2v-0.4h-1.1V60.3c-0.7,0.1-1.4,0.1-2.1,0.1h-0.3v0.5h0.9v11.9     h-0.9v0.4H270.8 M272.9,66.3L272.9,66.3l-3.1,2.7l3.1,3.8H272v0.4h3.5v-0.4h-0.8l-3.5-4.2l2.6-2.2h1.1V66h-3v0.4L272.9,66.3     L272.9,66.3z"/>
		</g>
	</g>
</g>
<g>
	<g>
		<g>
			<defs>
				<polyline id="SVGID_41_" points="-25,59.5 -25,114 337.4,114 337.4,59.5     "/>
			</defs>
			<clipPath id="SVGID_42_">
				<use xlink:href="#SVGID_41_" overflow="visible"/>
			</clipPath>
			<path clip-path="url(#SVGID_42_)" fill="#161A3C" d="M282.7,61.9c0,0.5,0.3,1,0.9,1c0.5,0,0.9-0.4,0.9-1c0-0.5-0.5-0.9-0.9-0.9     C283.1,61,282.7,61.4,282.7,61.9 M285.4,73.2v-0.4h-1.1v-7.1c-0.7,0.1-1.4,0.2-2.1,0.2h-0.6v0.4h1.2v6.5h-1.2v0.4H285.4z"/>
		</g>
	</g>
</g>
<g>
	<g>
		<g>
			<defs>
				<polyline id="SVGID_43_" points="-25,59.5 -25,114 337.4,114 337.4,59.5     "/>
			</defs>
			<clipPath id="SVGID_44_">
				<use xlink:href="#SVGID_43_" overflow="visible"/>
			</clipPath>
			<path clip-path="url(#SVGID_44_)" fill="#161A3C" d="M288.5,72.8h-1v0.4h3.4v-0.4h-1v-3.4c0-1.4,0.9-3.1,2.2-3.1     c0.7,0,1.1,0.2,1.1,1.5v5h-0.9v0.4h3.4v-0.4h-1v-5.2c0-1.7-1.5-1.9-2.2-1.9c-1.3,0-2.1,0.8-2.6,2h-0.1v-2c-0.3,0.1-0.7,0.1-1,0.1     c-0.3,0.1-0.7,0.1-1,0.1h-0.4v0.4h1v6.5"/>
		</g>
	</g>
</g>
<g>
	<g>
		<g>
			<defs>
				<polyline id="SVGID_45_" points="-25,59.5 -25,114 337.4,114 337.4,59.5     "/>
			</defs>
			<clipPath id="SVGID_46_">
				<use xlink:href="#SVGID_45_" overflow="visible"/>
			</clipPath>
			<path clip-path="url(#SVGID_46_)" fill="#161A3C" d="M302.3,65.9l-0.3,0.5c-0.6-0.5-1.1-0.7-1.7-0.7c-2,0-2.5,1.5-2.5,2.3     c0,1.6,1.1,1.7,2.3,2.1c1.5,0.4,2.6,0.7,2.6,1.4c0,0.9-0.9,1.6-1.8,1.6c-1.3,0-2.3-1-2.6-2.3h-0.4v2.4h0.4l0.4-0.7     c0.5,0.6,1.3,0.9,2.2,0.9c1.5,0,2.7-0.9,2.7-2.6c0-1.1-0.5-1.8-1.9-2.1c-2.8-0.6-3-0.9-3-1.4c0-0.2,0.2-1.4,1.7-1.3     c1.1,0.1,1.7,0.8,2,1.9h0.4v-2.1L302.3,65.9"/>
		</g>
	</g>
</g>
<g>
	<g>
		<g>
			<defs>
				<polyline id="SVGID_47_" points="-25,59.5 -25,114 337.4,114 337.4,59.5     "/>
			</defs>
			<clipPath id="SVGID_48_">
				<use xlink:href="#SVGID_47_" overflow="visible"/>
			</clipPath>
			<path clip-path="url(#SVGID_48_)" fill="#161A3C" d="M305.2,66.3h1.1v5.5c0,0.9,0.1,1.6,1.5,1.6c0.7,0,1.6-0.4,2-1.1l-0.3-0.2     c-0.3,0.3-0.5,0.7-1,0.7c-0.7,0-0.7-0.5-0.7-0.8v-5.6h1.6V66h-1.6v-2.4c-0.5,0.1-0.9,0.1-1.4,0.1V66h-1.1L305.2,66.3"/>
		</g>
	</g>
</g>
<g>
	<g>
		<g>
			<defs>
				<polyline id="SVGID_49_" points="-25,59.5 -25,114 337.4,114 337.4,59.5     "/>
			</defs>
			<clipPath id="SVGID_50_">
				<use xlink:href="#SVGID_49_" overflow="visible"/>
			</clipPath>
			<path clip-path="url(#SVGID_50_)" fill="#161A3C" d="M312.4,61.9c0,0.5,0.3,1,0.9,1c0.5,0,0.9-0.4,0.9-1c0-0.5-0.5-0.9-0.9-0.9     S312.4,61.4,312.4,61.9 M315.1,73.2v-0.4H314v-7.1c-0.7,0.1-1.4,0.2-2.1,0.2h-0.6v0.4h1.2v6.5h-1.2v0.4H315.1z"/>
		</g>
	</g>
</g>
<g>
	<g>
		<g>
			<defs>
				<polyline id="SVGID_51_" points="-25,59.5 -25,114 337.4,114 337.4,59.5     "/>
			</defs>
			<clipPath id="SVGID_52_">
				<use xlink:href="#SVGID_51_" overflow="visible"/>
			</clipPath>
			<path clip-path="url(#SVGID_52_)" fill="#161A3C" d="M317,66.3h1.1v5.5c0,0.9,0.1,1.6,1.5,1.6c0.7,0,1.6-0.4,2-1.1l-0.3-0.2     c-0.3,0.3-0.5,0.7-1,0.7c-0.7,0-0.7-0.5-0.7-0.8v-5.6h1.6V66h-1.6v-2.4c-0.5,0.1-0.9,0.1-1.4,0.1V66h-1.1L317,66.3"/>
		</g>
	</g>
</g>
<g>
	<g>
		<g>
			<defs>
				<polyline id="SVGID_53_" points="-25,59.5 -25,114 337.4,114 337.4,59.5     "/>
			</defs>
			<clipPath id="SVGID_54_">
				<use xlink:href="#SVGID_53_" overflow="visible"/>
			</clipPath>
			<path clip-path="url(#SVGID_54_)" fill="#161A3C" d="M331.2,72.8h-1.1v-7.1c-0.7,0.1-1.4,0.2-2.1,0.2h-0.4v0.4h1.1v4.2     c0,1.3-0.9,2.4-2.2,2.4c-0.5,0-1.1-0.3-1.1-1.3v-5.8c-0.7,0.1-1.4,0.2-2.1,0.2h-0.4v0.4h1v5.4c0,0.9,0.4,1.8,2.2,1.8     c1.2,0,2.2-0.6,2.7-1.6h0.1v1.5c0.7-0.1,1.3-0.1,2-0.1h0.4L331.2,72.8"/>
		</g>
	</g>
</g>
<g>
	<g>
		<g>
			<defs>
				<polyline id="SVGID_55_" points="-25,59.5 -25,114 337.4,114 337.4,59.5     "/>
			</defs>
			<clipPath id="SVGID_56_">
				<use xlink:href="#SVGID_55_" overflow="visible"/>
			</clipPath>
			<path clip-path="url(#SVGID_56_)" fill="#161A3C" d="M332.8,66.3h1.1v5.5c0,0.9,0.1,1.6,1.5,1.6c0.7,0,1.6-0.4,2-1.1l-0.3-0.2     c-0.3,0.3-0.5,0.7-1,0.7c-0.7,0-0.7-0.5-0.7-0.8v-5.6h1.6V66h-1.7v-2.4c-0.5,0.1-0.9,0.1-1.4,0.1V66h-1.1V66.3"/>
		</g>
	</g>
</g>
<g>
	<g>
		<g>
			<defs>
				<polyline id="SVGID_57_" points="-25,59.5 -25,114 337.4,114 337.4,59.5     "/>
			</defs>
			<clipPath id="SVGID_58_">
				<use xlink:href="#SVGID_57_" overflow="visible"/>
			</clipPath>
			<path clip-path="url(#SVGID_58_)" fill="#161A3C" d="M22,59.5c-1.9,2.4-3.3,5.8-3.3,10.2V90H3.8V59.5H22"/>
		</g>
	</g>
</g>
<g>
	<g>
		<g>
			<defs>
				<polyline id="SVGID_59_" points="-25,59.5 -25,114 337.4,114 337.4,59.5     "/>
			</defs>
			<clipPath id="SVGID_60_">
				<use xlink:href="#SVGID_59_" overflow="visible"/>
			</clipPath>
			<rect x="127.2" y="59.5" clip-path="url(#SVGID_60_)" fill="#161A3C" width="15.4" height="30.5"/>
		</g>
	</g>
</g>
<g>
	<g>
		<g>
			<defs>
				<polyline id="SVGID_61_" points="-25,59.5 -25,114 337.4,114 337.4,59.5     "/>
			</defs>
			<clipPath id="SVGID_62_">
				<use xlink:href="#SVGID_61_" overflow="visible"/>
			</clipPath>
			<path clip-path="url(#SVGID_62_)" fill="#161A3C" d="M32.7,59.5h15V90h-15V61.1C32.7,60.5,32.7,60,32.7,59.5"/>
		</g>
	</g>
</g>
<g>
	<g>
		<g>
			<defs>
				<polyline id="SVGID_63_" points="-25,59.5 -25,114 337.4,114 337.4,59.5     "/>
			</defs>
			<clipPath id="SVGID_64_">
				<use xlink:href="#SVGID_63_" overflow="visible"/>
			</clipPath>
			<path clip-path="url(#SVGID_64_)" fill="#161A3C" d="M-6.7,59.5c-1.9,2.4-3.3,5.8-3.3,10.2V90h-15V59.5H-6.7"/>
		</g>
	</g>
</g>
<g>
	<g>
		<g>
			<defs>
				<polyline id="SVGID_65_" points="-25,59.5 -25,114 337.4,114 337.4,59.5     "/>
			</defs>
			<clipPath id="SVGID_66_">
				<use xlink:href="#SVGID_65_" overflow="visible"/>
			</clipPath>
			<path clip-path="url(#SVGID_66_)" fill="#161A3C" d="M82.8,59.5c-2,3-3.3,6.4-3.3,8.6v12.7C79.5,85.4,84.3,94,91,94     c3.7,0,5.2-2.2,5.2-5.6V60.7c0-0.4,0-0.9-0.1-1.3h12.4c2.7,4.1,4.2,9.1,4.2,14.3c0,11.5-7.7,23.1-19.8,23.1     c-5.6,0-10.2-3.2-13-8.1h-0.3V114H64.1V59.5H82.8"/>
		</g>
	</g>
</g>
<g>
	<g>
		<defs>
			<polyline id="SVGID_67_" points="-25,23.3 -25,41.5 337.4,41.5 337.4,23.3    "/>
		</defs>
		<clipPath id="SVGID_68_">
			<use xlink:href="#SVGID_67_" overflow="visible"/>
		</clipPath>
		<rect x="157.2" y="23.3" clip-path="url(#SVGID_68_)" fill="#666D8D" width="15.4" height="10.2"/>
	</g>
</g>
<circle fill="#FFFFFF" stroke="#FFFFFF" stroke-miterlimit="10" cx="-89" cy="69.1" r="47.3"/>
<g>
	<path fill="#C4C4B8" d="M-133.8,69.1c0,24.7,20.1,44.8,44.8,44.8s44.8-20.1,44.8-44.8S-64.3,24.3-89,24.3   C-113.8,24.2-133.8,44.4-133.8,69.1 M-132.6,69.1c0-24,19.6-43.6,43.6-43.6s43.6,19.6,43.6,43.6S-65,112.7-89,112.7   S-132.6,93.2-132.6,69.1z"/>
	<path fill="#C4C4B8" d="M-76.6,96c-1.1,3.8-1.6,5.7,0.1,9.6c0,0.1,0.2,0.6,0,0.7c-1.9-0.4-2.4-0.5-4.2-0.7   c-1.6-0.3-4.4,0.2-6.1,0.1c-1.4,0.1-2.8,0.1-4.3,0.3c-0.5-0.2-0.1-0.7-0.1-1.1c0.1-0.5,0.2-0.8,0.2-1.3c0.2-0.3,0.5-0.1,0.8-0.2   c0.9-0.1,1.7-1,2-1.9c0.3-0.9,0-2-0.5-2.9c-0.1-0.3-0.5-0.5-0.3-0.7c1.1-2.2,0.3-4.4-0.1-6.6c-0.4-1.5-1-3.2-1.3-4.8   c0.1-0.1-0.1-0.5,0.2-0.6h0.1c1.3,1.5,4.8,4.7,6.2,5.8c1.3,1,4.8,3.1,7.1,3.6C-76.4,95.7-76.4,95.8-76.6,96 M-93.3,99.9   c0-0.2,0-0.3,0.1-0.3h0.8c0.7,0,1.7,0.3,2.4-0.4c0.4,0,0.4,0.5,0.5,0.8c0.1,0.5,0.1,0.8,0.1,1.3c-0.1,0.3-0.3,0.9-0.7,1.1   c-0.6,0.3-1.1,0.2-1.7,0C-92.7,101.9-93.3,101.1-93.3,99.9z M-91.8,104.1c-0.1,1-1.3,1.8-2,2c-0.6,0.2-2.4,0.1-3-0.1   c-0.5-0.2-1.8-2.7-1.6-4c0-1.1,0.3-2.8,0.7-2.9s1.5-0.1,1.5-0.1c0.5,0,0.8,0.1,1.2,0.1c0.3,0.1,0.1,0.5,0.2,0.7   c0.1,0.5,0.1,1.1,0.5,1.7c0.5,0.9,1.3,1.5,2.2,1.8C-91.8,103.6-91.8,103.9-91.8,104.1z M-98.9,105.8c-0.3,0.3-0.5,0.2-0.9,0.2   c-0.9-0.3-1.5-0.7-1.8-1.7c-0.3-1.5-0.3-3.2,0-4.8l0.1-0.1c0.7-0.1,1.7-0.2,2-0.1s-0.3,2.9-0.3,2.9c0,0.5,0.3,2,0.5,2.7   C-99.2,105-98.6,105.5-98.9,105.8z M-87.4,73.2v0.9c-0.1,0.9-0.5,1.8-1.3,2.4c-0.5-0.1-0.3-0.7-0.4-1.1c0.3-0.9,0.9-1.5,1.4-2.4   c0.1-0.1,0.1-0.1,0.2-0.1L-87.4,73.2z M-80.4,65.6c-0.5,0.2-1,0.3-1.5,0c-0.1-0.2-0.6-0.3-0.4-0.6c0.4-0.7,1.1-1.2,1.5-1.8l0.2-0.1   c0.9-1,2.2-1.9,3.4-2.6l0.7-0.3c0.1-0.1,0.5-0.5,0.7-0.1c0,1.3-0.5,2.8-1.8,3.7c-0.7,0.5-1.1,0.5-1.8,0.5l-0.3,0.6   C-79.8,65.1-80.1,65.4-80.4,65.6z M-83.2,78.1c-0.2,0.1-2.2-0.6-2-0.4c-0.5-0.5,0.3-0.7-1.5-1.3l-0.4,0.1c-0.1,0.1-0.2,0.1-0.3-0.1   c0-0.3,0.3-0.2,0.5-0.5c0.6-1.4,0.3-2.5,0.2-4l0.5-1.2c0.9-1.1,0.9-1.2,1.5-1.8c0.6-0.9,0.7-0.9,1.5-1.6c0.1-0.1,0.4-0.2,0.5-0.1   c0.4,0.3,0.4,0.5,0.5,0.9c0.2,1.4-0.7,2.4-1.7,3.1c-0.7,0.6-1.4,1.6-1.3,2.6l0.1,0.1c0.3-0.3,0.7-0.5,0.9-0.8   c0.5-1.2,2-1.8,2.9-2.9c0.3-0.7,0.1-1.7,0-2.5c0,0,1.1-0.5,0.8-0.3c0.5,0.2,0.5,0.6,0.7,1.1c0.5,1.2,0.5,2.4-0.3,3.4l-2.1,2.6   C-82.3,75.7-81.9,77.4-83.2,78.1z M-74.4,58.4l0.1-0.2c0.7-0.3,1.3-0.5,1.9-0.7l0.9-0.2c0.2-0.2,0.6-0.4,0.9-0.1c0,1.1-0.8,2.4-2,3   c-0.4,0.2-0.9,0.2-1.3,0.3c-0.1-0.1-0.5,0.1-0.6-0.2C-74.5,59.7-74.3,58.9-74.4,58.4z M-66.1,56.3c-0.1,0.8-1.1,1.5-2,1.7   c-0.4,0.1-0.7,0.1-1.1,0.1c-0.1-0.1-0.2-0.1-0.2-0.2c0.1-0.4,0.1-0.6,0.1-0.9l0.2-0.1c0.8-0.1,1.7-0.3,2.6-0.5   C-66.3,56.2-66.2,56.2-66.1,56.3z M-91.5,72.3c2.3-4.1,5.1-7.7,8.1-11.4l4.2-4.8c3-3.2,6.3-6.5,10-9c0.5-0.3,0.7-0.8,1.1-0.4   l0.4,0.4c0.3,0.3,0.1,1.3-0.3,1.5c-0.3,0.2-0.5,0.4-0.7,0.6c0.7,0.7,1.7,2.1,2.6,3c0.4,0.4,0.3,0.8,0.9,1.1   c0.3,0.1,0.4,0.5,0.2,0.8c-0.6,0.7-1.5,0.7-2.4,0.9c-2.9,0.7-5.2,1.5-8.4,3c-2.6,1.3-4.6,2.8-6.5,5.2c-0.7,0.9-1.5,1.5-2.1,2.6   c-1.7,2.1-3,4.2-4.4,6.4c-0.5,0.7-0.6,1.1-1.3,1.7c-0.3,0.3-0.6-0.3-0.8-0.5l-0.1-0.1c-0.1,0-0.1,0-0.2-0.1   C-91,72.8-91.6,72.7-91.5,72.3z M-64.7,56.8c-0.1,0.1-0.2,0.2-0.3,0.2c-0.3-0.3-0.2-0.5-0.2-0.9C-65.1,56-65.1,56-65,56   c0.1,0,0.3,0.1,0.3,0.2C-64.7,56.4-64.7,56.6-64.7,56.8z M-103.5,104.3c-0.7,0-1.1-0.3-1.5-1.1c-0.3-1-0.4-1.9-0.2-3   c0.1-0.1,0.2-0.2,0.3-0.2l0.9-0.3c0.3-0.1,0.6-0.2,0.9-0.1l0.2,0.2c0,0.5-0.1,0.9-0.1,1.5c-0.1,1.3-0.1,1.7,0.2,2.9   C-102.9,104.4-103.2,104.3-103.5,104.3z M-106.3,100.7c-0.1,0.3-0.1,0.5-0.2,0.7c-0.1,0.1-0.5-0.1-0.6-0.1   c-0.5-0.3-0.5-0.1-0.6-0.6c-0.1-0.3-0.1-0.7,0.5-0.9c0.3-0.2,1-0.4,1.2,0C-106,100-106.4,100.4-106.3,100.7z M-59.2,73.5   c-1.2-2.8-2.5-5.1-3.5-7.9c-0.7-1-0.3-2-0.4-3.1c-0.5-1.7-1.1-2.9-1.8-4.5c-0.2-0.5,0.3-0.6,0.5-0.9c0.3-0.8,0.1-1.7-0.3-2.5   c-0.1-0.5,0.4-0.7,0.3-1.2c0-0.7-0.7-1.2-1.1-1.5c-0.7-1.1-1.1-1.6-2-2.6V49c0.5-0.4,0.9-1.1,0.8-1.7c-0.2-0.7-0.3-1.3-1-1.8   c-1.1-0.6-2.2,0.3-3,0.8c-0.2,0.1-0.3,0.3-0.7,0.3c-0.2-0.1-0.4-0.1-0.7-0.3c-0.2,0.3-0.5,0.5-0.8,0.7l1,0.4c0.1,0,0.1,0.1,0.1,0.1   v0.1c-0.1,0.1-2.4,2.1-2.4,2.1l-4.2,4.1l-1.2,1.2l-3.7,4.2c-1.9,2.2-4.8,5.9-6.5,8.5c-0.9,1.2-1.7,2.6-2.6,3.9   c-0.1,0.1-0.3,0.1-0.5,0.1s-0.3-0.1-0.5,0l0,0h-0.1l0,0c-0.9,0.1-1.6,0.4-2.4,1.1c-0.9,1.1-1.4,2.5-1.4,3.9c0,1,0.2,2.1,0.7,3.1   c-0.2,0.5-0.6,1.1-1,1.5l-0.2,0.3l-0.3,0.3c-0.2,0.2-0.4,0.4-0.5,0.5l0,0l0,0c0,0.1,0,0.2,0.1,0.3h0.1h0.1c0.9-0.2,1.4-0.9,1.9-1.5   c0,0,0.3-0.4,0.4-0.5c0.1,0,0.1,0,0.3,0.1c0.1,0.1,0.1,0.1,0.2,0.1V81v0.3c-2.1,2-3.8,3.2-5.9,4.5l-0.3,0.2l0.4,0.1   c0.9,0.1,1.7-0.4,2.5-0.9l0.9-0.5c0.9-0.5,1.7-1.1,2.5-1.8c0,0,0.7-0.6,0.8-0.7c0.1,0,0.1,0.1,0.2,0.2l0.1,0.1l0.7,1.3   c-0.1,0.6-0.2,1.2-0.2,1.8c0,1.3,0.3,2.6,0.5,3.9c0.3,1.3,0.5,2.6,0.5,3.8c0,0.1,0,0.2,0,0.3c0,0.4-0.4,0.9-0.8,1.1   c-0.8,0.1-1.8,0.1-2.9,0.1c-1.3,0-2.6,0-3.6,0.3c-0.3,0.1-0.7,0.1-1.1,0.3c-0.3,0.1-0.7,0.2-1.1,0.3h-0.1h-0.1l-0.1,0.1   c-0.1,0.1-0.3,0.1-0.3,0.3c0,0,0,0,0,0.1c0,0.1,0.1,0.2,0.1,0.3c0.1,0.1,0.1,0.1,0.3,0.1c0.3,0,0.7-0.1,1-0.3   c0.2-0.1,0.5-0.2,0.7-0.2c2.2-0.3,4.5-0.3,6.1-0.1c0.8,0,2.1-0.1,2.6-1.1c0.2-0.5,0.2-0.9,0.2-1.3c0-0.5-0.1-0.9-0.1-1.3V91   c-0.1-0.7-0.2-1.3-0.4-1.9c-0.3-1.1-0.5-2.3-0.5-3.5c0-0.3,0-0.5,0.1-0.7l0.1-0.1c0.1,0,0.2,0.1,0.3,0.1c0.1,0.1,0.2,0.2,0.3,0.2   c0.1,0.1,0.3,0.1,0.5,0.1c0.2,0,0.3,0.1,0.4,0.2c0.1,1,0.5,2.1,0.8,3.2c0.3,0.7,0.5,1.5,0.7,2.2c0.3,1.3,0.5,2.6,0.5,3.8   c0,0.7-0.1,1.5-0.3,2.2c-0.5,1-1.7,1-2.9,1h-0.5l-2.8-0.2c-2.4-0.2-5-0.3-7.6,0.1l-0.6,0.1c-0.3,0.1-0.6,0.1-0.9,0   c-0.1-0.1-0.2-0.3-0.2-0.5c0-0.1,0-0.1,0-0.2c0.5-1,0.7-1.9,0.7-2.8c0-0.7-0.1-1.3-0.5-1.7c-0.7-1.3-1.4-2.2-2.3-2.8   c-1.1-1.1-2.1-2.1-2.9-3.1c-0.5-0.1-0.8-0.1-0.8-0.2l-0.1-0.1l-0.5,0.6c0.7,0.6,1.2,1.2,1.9,1.9c1.1,0.6,2,1.7,2.8,2.4   c0.9,1.1,1.2,2.3,1,3.6c-0.1,1.5-1.5,2.2-2.6,3.3c-0.4,0.7-0.7,1.6-0.1,2.4c0.3,0.9,1.8,0.7,2,1.5c0.4,1.7,3.3,2.6,3.9,2.7   c0.5,0.1,1.1,0.7,1.1,0.7c1.1,0.9,2.7,0.6,3.5,0.5c0.8-0.1,2.2,0.5,3.1,0.4c1.3-0.5,2.4-0.3,3.8-0.4c4.4,0.1,9.3,0,13.7,0.5   c0.8-0.1,1.8,0.5,2.6,0.1c0.2-0.3,0.1-0.6,0-0.9c-2.2-3.4-2.4-7.1-1.2-10.8l0.8,0.1c2.9,0.3,5.5-0.1,8.4-1.8c1.5-0.8,2.2-2.7,2.2-4   c-0.1-0.9-0.3-2-0.2-2.9c0.1-0.4,0.3-1.1,0.7-1.3c0.1-0.1,0.7-0.5,0.9-0.9c0.3-0.7-0.3-1.1-0.5-1.2c0.5-0.2,0.9-1.1,0.5-1.9   c-0.3-0.3-0.6-1.5-0.6-1.8c-0.1-0.5-0.1-1.1,0.4-1.5c1.1-0.6,2.2-0.7,3.4-1.3c0.8-0.3,1.3-1.2,1.2-2L-59.2,73.5z M-59.6,76.4   c-1.2,1.1-3,1.1-4.4,2.1c-0.7,0.7-0.5,1.3-0.2,2.1c0.5,1,0.3,0.9-0.4,1.1c-1.7,0.5-1.7,2.4-3.7,2.1c-0.1,0.1-0.6-0.2-0.3,0.1   c0.2,0.3,0.3,0.1,0.7,0.1c0.7,0.1,1-0.3,1.5-0.6c0.7-0.6,0.6-0.8,1.5-1.3c0.2-0.1,0.7-0.2,1-0.1c0.2,0.2,0.2,0.2,0.3,0.3   c-0.1,0.5-0.8,0.9-1.1,1.1c0.4,0.3,1.1,0.7,1,1.1c-0.1,0.3-0.1,0.3-0.5,0.5c-0.4,0.2-1.2,0.1-2-0.4c-0.1,0.1-0.3-0.2-0.5,0.1   c0.7,0.7,1.7,0.6,1.9,0.7c0.1,0.1-0.5,1.1-0.6,1.3c-0.5,1.3,0.1,2.6-0.1,3.9c-0.1,1.1-0.5,1.5-1.4,2.3c-1.7,1.2-2.9,1.5-4.8,1.8   c-5,0.3-8.3-1.4-11.9-4.1c-3.6-2.7-5-4.2-6.2-5.7c0-0.6,0.5-1.1,0.1-1.7c-0.3,0.1-0.3,0.5-0.5,0.8c-0.3,0.4-0.9,0.7-1.4,0.7   c-1.5-0.5-1.6-2.3-2.5-3.3c-2-1.9-2.6-4.8-1.5-7.2c0.4-0.7,1.1-1.5,1.8-1.7c0.9-0.1,2-0.1,2.6,0.7c0.7,0.7,1.1,1.8,1.3,2.8   c0.3,0.5-0.1,1,0.4,1.4c0.9,0.1,1.6,0.3,2.4-0.2c0.6,0.1,0.7,0.7,1.1,1.1l0.8,0.5c0.9,0.3,2,0.3,2.8-0.3c1.4-1.4,1.1-2.9,1.5-4.4   c1.3-1.1,2.2-2.8,2.2-4.5c-0.1-1-0.5-2-1-3c0.1-0.6,0.4-1,0.6-1.5C-79,65-78.7,65-78.6,65c1.5-0.3,2.8-1.7,3.4-3l0.1-0.1   c1.7-0.1,3.8-0.7,4.8-2.5c0.2-0.7,1.1-0.2,1.6-0.4c0.9-0.1,1.7-0.5,2.5-1.1c0.2-0.1,0.3,0.1,0.5,0.3c0.4,1.3,1.1,2.6,1.5,3.9   c0.5,1,0.7,2,0.5,3c0.2,1.5,1.1,3,1.7,4.6c0.6,1.7,1.6,3.4,2.3,5C-59.4,75.3-59.1,75.9-59.6,76.4z"/>
	<path fill="#C4C4B8" d="M-67,63.3c0.2,0.3,0.4,0.5,0.2,0.9c-0.4,0-0.5-0.5-0.9-0.7c-0.6-0.3-1.1,0-1.7,0.1c-1.5,0.7-2.8,2-4.2,2.6   c-0.2,0-0.3,0-0.5-0.1c0.3-0.3,0.7-0.3,0.9-0.5c1.5-1,3-2.6,4.8-2.8C-67.8,62.7-67.4,62.9-67,63.3"/>
	<path fill="#C4C4B8" d="M-68.4,68.8c-0.2,0.3-0.6,0.1-0.9,0.1c-0.7-0.1-2,0.1-2.8,0c-0.1-0.1-0.2-0.2-0.1-0.3   c0.1-0.2,0.5-0.2,0.7-0.4c0.9-0.5,1.8-1.1,2.9-1.3c0.2,0,0.3,0.1,0.4,0.3C-68.3,67.5-68.4,68.3-68.4,68.8 M-67.2,65.8   c-0.1-0.3-0.1-0.9-0.5-1c-0.1,0.2,0,0.5-0.1,0.7c-0.1,0.1-0.3,0.3-0.6,0.3c-1.8,0.1-3.2,1.7-4.7,2.6c-0.5,0.3-1.1,0.5-1.7,0.6   c-0.1,0.1,0,0.2,0.1,0.3c1.7,0.2,3.4,0.3,5.1,0.5l1.9-0.2c0.1-0.3-0.3-0.5-0.2-0.7c0.2-0.7,0.3-1.6,0.1-2.4   C-67.8,66-67.2,66.3-67.2,65.8z"/>
	<path fill="#C4C4B8" d="M-66.2,74.3c0.1-0.1,0.1-0.2,0.2-0.2c0.1,0.1,0.1,0.1,0.2,0.3c0,0.3-0.1,0.7-0.2,1   c-0.1,0.4-0.2,0.8-0.2,1.2c0,0.2,0,0.3,0.1,0.5c0.3,0.3,0.6,0.3,1.1,0.2l0.7-0.4c0.7-0.4,1.3-0.7,2.4-1c0,0,0,0,0.1,0V76   c0,0.1,0,0.2-0.1,0.3c-0.1,0-1.1,0.5-1.1,0.5c-0.8,0.3-1.7,0.7-2.5,1.2c-0.2,0.1-0.5-0.1-0.7-0.2h-0.1c-0.3-0.4-0.4-0.8-0.4-1.2   c0-0.3,0.1-0.7,0.1-1.1c0.1-0.3,0.1-0.7,0.2-1.1C-66.3,74.4-66.2,74.3-66.2,74.3"/>
	<path fill="#C4C4B8" d="M-91.8,74c0.6,1.2,0,2.4,0,3.6c0.1,0.3,0.8,0.4,0.6,0.9c-0.1,0.1-0.4,0.1-0.6,0c-0.3-0.2-0.5-0.4-0.5-0.7   c-0.1-1.1,0.8-2.4,0-3.5c-0.2-0.2-0.5-0.5-0.9-0.5c-0.7,0.1-1.1,0.9-1.3,1.5c-0.4,1.5-0.5,3,0.8,4.2C-93,80-92,80.4-92,81.4   c0.1,0.1,0.3,0.3,0.5,0.2c0.2,0,0.3-0.7,0.6-0.3l0.1,0.2c-0.1,0.3-0.1,0.7-0.6,0.7c-0.2,0.1-0.5-0.1-0.6-0.2   c-0.5-0.5-0.1-1.2-0.9-1.5c-1.3-0.4-2.2-1.7-2.3-3c-0.1-1.2,0-2.6,1-3.6c0.4-0.3,0.9-0.5,1.5-0.3C-92.3,73.5-92,73.7-91.8,74"/>
	<path fill="#C4C4B8" d="M-107.7,83.4c1.7-0.8,3.7-0.7,4.4-0.6c-0.2,0.7-0.9,2.4-2.9,3.4c-1.9,0.9-3.6,0.7-4.2,0.6   C-110.2,86.1-109.5,84.2-107.7,83.4 M-108,82.9c-2.4,1.1-3.1,3.9-3.1,4l-0.1,0.3l0.3,0.1c0.1,0,2.3,0.7,4.9-0.5   c2.7-1.3,3.2-4,3.2-4.1l0.1-0.3l-0.3-0.1C-103,82.2-105.7,81.8-108,82.9z"/>
	<path fill="#C4C4B8" d="M-105.4,78.1c1.7-0.7,3.6-0.7,4.3-0.6c-0.2,0.7-0.9,2.4-2.9,3.3c-1.9,0.9-3.6,0.7-4.2,0.6   C-108,80.7-107.1,78.9-105.4,78.1 M-105.6,77.6c-2.4,1.1-3.2,3.8-3.2,4l-0.1,0.3l0.3,0.1c0.1,0,2.3,0.7,4.9-0.6   c2.7-1.3,3.3-3.8,3.3-4l0.1-0.3l-0.3-0.1C-100.8,77-103.3,76.5-105.6,77.6z"/>
	<path fill="#C4C4B8" d="M-102.3,73.1c1.7-0.7,3.5-0.7,4.2-0.5c-0.2,0.7-0.9,2.3-2.9,3.2c-1.9,0.9-3.6,0.7-4.2,0.7   C-105,75.6-104.1,73.8-102.3,73.1 M-102.6,72.5c-2.4,1-3.4,3.8-3.4,3.9l-0.1,0.3l0.3,0.1c0.1,0,2.3,0.6,4.9-0.6   c2.7-1.3,3.3-3.7,3.3-3.8l0.1-0.3l-0.3-0.1C-97.9,72-100.2,71.5-102.6,72.5z"/>
	<path fill="#C4C4B8" d="M-99.3,68.1c1.7-0.7,3.4-0.6,4-0.5c-0.3,0.6-1,2.2-3,3c-1.9,0.9-3.6,0.8-4.2,0.7   C-102.1,70.6-101.1,68.8-99.3,68.1 M-99.6,67.5c-2.4,1-3.5,3.7-3.6,3.8l-0.1,0.3l0.3,0.1c0.1,0,2.2,0.5,4.9-0.7   c2.7-1.2,3.3-3.6,3.4-3.7l0.1-0.3l-0.3-0.1C-94.9,67-97.2,66.5-99.6,67.5z"/>
	<path fill="#C4C4B8" d="M-95.1,63c1.7-0.7,3.3-0.6,3.9-0.5c-0.3,0.6-1,2.1-3,3c-1.9,0.8-3.5,0.8-4.2,0.7   C-98,65.5-96.8,63.8-95.1,63 M-95.3,62.5c-2.4,1-3.7,3.7-3.8,3.8l-0.1,0.3l0.3,0.1c0.1,0,2.2,0.5,4.9-0.7c2.8-1.2,3.4-3.5,3.4-3.6   l0.1-0.3l-0.3-0.1C-90.9,62-93,61.6-95.3,62.5z"/>
	<path fill="#C4C4B8" d="M-90.5,58.2c1.7-0.7,3.2-0.5,3.8-0.5c-0.3,0.6-1.1,2-3,2.8c-1.9,0.8-3.5,0.8-4.2,0.7   C-93.5,60.6-92.2,58.9-90.5,58.2 M-90.7,57.7c-2.4,0.9-3.8,3.6-3.9,3.7l-0.2,0.3l0.4,0.1c0.1,0,2.2,0.4,4.9-0.7   c2.8-1.1,3.4-3.4,3.4-3.5l0.1-0.3l-0.3-0.1C-86.3,57.3-88.3,56.7-90.7,57.7z"/>
	<path fill="#C4C4B8" d="M-85.6,53.6c1.7-0.7,3.1-0.5,3.7-0.4c-0.3,0.6-1.1,1.9-3,2.7c-1.8,0.7-3.4,0.8-4.2,0.8   C-88.6,56-87.3,54.3-85.6,53.6 M-85.8,53.1c-2.4,0.9-4,3.6-4,3.7l-0.2,0.3l0.4,0.1c0.1,0,2.2,0.3,4.9-0.8c2.8-1.1,3.4-3.2,3.4-3.4   l0.1-0.3l-0.3-0.1C-81.6,52.7-83.4,52.2-85.8,53.1z"/>
	<path fill="#C4C4B8" d="M-80.5,49.4c1.6-0.6,3-0.5,3.6-0.4c-0.3,0.5-1.1,1.8-3,2.6c-1.8,0.7-3.4,0.8-4.2,0.8   C-83.5,51.7-82.1,50.1-80.5,49.4 M-80.6,48.9c-2.4,0.9-4.2,3.5-4.2,3.6l-0.3,0.4l0.5,0.1c0.1,0,2.2,0.3,4.9-0.8   c2.8-1.1,3.4-3.2,3.5-3.2l0.1-0.3l-0.3-0.1C-76.5,48.5-78.3,48-80.6,48.9z"/>
	<path fill="#C4C4B8" d="M-75.2,45.6c1.6-0.6,2.9-0.5,3.4-0.4c-0.3,0.5-1.1,1.7-3,2.5c-1.8,0.7-3.4,0.8-4.1,0.8   C-78.4,47.8-76.9,46.2-75.2,45.6 M-75.4,45.1c-2.4,0.9-4.3,3.5-4.4,3.6l-0.3,0.4l0.5,0.1c0.1,0,2.2,0.2,4.9-0.9   c2.8-1.1,3.5-3,3.5-3.1l0.1-0.3l-0.3-0.1C-71.4,44.8-73,44.2-75.4,45.1z"/>
	<path fill="#C4C4B8" d="M-113,82.6c0-0.1,0-0.2,0-0.3c0.1-1.9,1.1-3.6,1.5-4.2c0.5,0.5,1.6,1.9,1.6,4c0,0.1,0,0.1,0,0.3   c-0.1,2.1-1.1,3.6-1.5,4C-111.8,85.9-113,84.4-113,82.6 M-111.7,77.6c-0.1,0.1-1.7,2.2-1.9,4.8c-0.2,2.6,2,4.6,2,4.6l0.2,0.2   l0.2-0.2c0.1-0.1,1.7-1.6,1.9-4.6c0.1-3-2-4.8-2-4.8l-0.2-0.2L-111.7,77.6z"/>
	<path fill="#C4C4B8" d="M-110,77c0-0.1,0-0.3,0-0.5c0.1-0.3,0.1-0.5,0.1-0.8c0.4-1.5,1.3-2.7,1.6-3.2c0.4,0.5,1.3,1.7,1.3,3.5   c0,0.2,0,0.4-0.1,0.7c-0.3,2.1-1.3,3.4-1.7,3.9C-109.1,80-110,78.6-110,77 M-108.4,71.8c-0.1,0.1-1.4,1.5-1.9,3.6   c-0.1,0.3-0.1,0.6-0.2,0.9c-0.3,2.5,1.5,4.6,1.6,4.6l0.2,0.2l0.2-0.2c0.1-0.1,1.8-1.5,2.2-4.4c0.3-2.9-1.5-4.7-1.6-4.8l-0.2-0.2   L-108.4,71.8z"/>
	<path fill="#C4C4B8" d="M-106.6,71.7c0-0.3,0-0.5,0.1-0.8c0.1-0.3,0.1-0.5,0.2-0.8c0.5-1.5,1.4-2.6,1.8-3c0.3,0.5,0.9,1.5,0.9,3   c0,0.3,0,0.7-0.1,1.1c-0.4,2-1.5,3.2-2,3.7C-106,74.4-106.6,73.1-106.6,71.7 M-104.7,66.5c-0.1,0.1-1.5,1.3-2.2,3.4   c-0.1,0.3-0.1,0.5-0.2,0.9c-0.5,2.4,1.1,4.6,1.1,4.6l0.2,0.2l0.2-0.2c0.1-0.1,1.8-1.5,2.4-4.2c0.5-2.8-1.1-4.7-1.1-4.8l-0.2-0.2   L-104.7,66.5z"/>
	<path fill="#C4C4B8" d="M-102.9,66.9c0-0.4,0.1-0.8,0.1-1.2c0.1-0.3,0.1-0.5,0.3-0.7c0.6-1.5,1.5-2.4,2-2.8   c0.3,0.4,0.7,1.3,0.7,2.5c0,0.5-0.1,0.9-0.2,1.5c-0.5,2-1.7,3.1-2.2,3.6C-102.5,69.2-102.9,68.1-102.9,66.9 M-100.7,61.5   c-0.1,0.1-1.5,1.2-2.4,3.2c-0.1,0.3-0.2,0.5-0.3,0.9c-0.5,2.4,0.6,4.6,0.7,4.6l0.1,0.3l0.3-0.2c0.1-0.1,1.9-1.3,2.6-4.1   c0.8-2.8-0.7-4.6-0.7-4.7l-0.2-0.2L-100.7,61.5z"/>
	<path fill="#C4C4B8" d="M-98.8,62.6c0-0.5,0.1-1.1,0.3-1.7c0.1-0.3,0.2-0.5,0.3-0.7c0.7-1.4,1.7-2.3,2.2-2.7c0.2,0.3,0.4,1.1,0.4,2   c0,0.5-0.1,1.2-0.3,1.9c-0.7,1.8-1.8,3-2.4,3.4C-98.6,64.4-98.8,63.6-98.8,62.6 M-96.2,56.8c-0.1,0.1-1.5,1-2.6,3.1   c-0.1,0.2-0.2,0.5-0.3,0.8c-0.7,2.3,0.2,4.6,0.2,4.6l0.1,0.3l0.3-0.2c0.1-0.1,1.9-1.3,2.9-3.9c1-2.7-0.2-4.6-0.3-4.6l-0.1-0.2   L-96.2,56.8z"/>
	<path fill="#C4C4B8" d="M-94.5,58.8c0-0.7,0.1-1.6,0.4-2.4c0.1-0.3,0.2-0.5,0.3-0.7c0.8-1.4,1.8-2.2,2.3-2.5   c0.1,0.3,0.3,0.8,0.3,1.5c0,0.7-0.1,1.5-0.5,2.4c-0.8,1.7-2,2.8-2.6,3.2C-94.5,59.9-94.5,59.4-94.5,58.8 M-91.5,52.5   c-0.1,0-1.6,0.8-2.8,2.9c-0.1,0.2-0.3,0.5-0.3,0.8c-0.8,2.2-0.3,4.6-0.2,4.6l0.1,0.3l0.3-0.2c0.1-0.1,1.9-1.2,3.2-3.7   c1.2-2.6,0.3-4.6,0.2-4.6l-0.1-0.3L-91.5,52.5z"/>
	<path fill="#C4C4B8" d="M-90,55.6c0-0.9,0.1-2.2,0.7-3.4c0.1-0.3,0.3-0.5,0.3-0.7c0.9-1.4,2-2.1,2.5-2.4c0.1,0.2,0.1,0.5,0.1,1   c0,0.7-0.1,1.7-0.8,2.8c-0.9,1.7-2.2,2.7-2.8,3.1C-90,56-90,55.8-90,55.6 M-86.5,48.6c-0.1,0-1.7,0.7-3,2.7   c-0.1,0.2-0.3,0.5-0.4,0.7c-0.9,2.1-0.7,4.5-0.7,4.6l0.1,0.4l0.3-0.2c0.1-0.1,1.9-1.1,3.4-3.6s0.7-4.5,0.7-4.6l-0.1-0.3L-86.5,48.6   z"/>
	<path fill="#C4C4B8" d="M-84.4,48.4c0.1-0.3,0.3-0.5,0.4-0.7c1-1.3,2.2-2,2.6-2.2c0,0.1,0,0.3,0,0.5c0,0.7-0.2,2-1.1,3.2   c-1.1,1.6-2.4,2.6-3,3C-85.3,51.4-85.1,49.8-84.4,48.4 M-81.2,44.9c-0.1,0-1.7,0.5-3.2,2.5c-0.1,0.2-0.3,0.5-0.5,0.7   c-1.1,2-1.1,4.5-1.1,4.6v0.5l0.4-0.2c0.1-0.1,2-1,3.6-3.4c1.7-2.4,1.1-4.4,1.1-4.5l-0.1-0.3h-0.2V44.9z"/>
	<path fill="#C4C4B8" d="M-78.7,44.2c1.1-1.3,2.3-1.8,2.8-2c0,0,0,0,0,0.1c0,0.7-0.1,2.1-1.4,3.6c-1.2,1.5-2.6,2.4-3.2,2.8   C-80.3,47.7-79.9,45.6-78.7,44.2 M-75.7,41.6c-0.1,0-1.7,0.3-3.4,2.3c-1.7,2-2,5.2-2.1,5.3l-0.1,0.5l0.5-0.2c0.1-0.1,2-0.9,3.9-3.2   c1.9-2.4,1.5-4.4,1.5-4.4l-0.1-0.3H-75.7z"/>
	<path fill="#C4C4B8" d="M-127.1,69.1c0-21,17.1-38.1,38.1-38.1c6.3,0,12.4,1.5,17.8,4.4c-0.8,0.9-4,4.5-4.4,5c-4.2-2-8.7-3-13.4-3   c-17.4,0-31.6,14.2-31.6,31.6c0,7.8,2.6,14.9,7.6,20.6c-0.3,0.7-0.8,2.1-0.8,4c0,1.6,0.3,3.5,1.5,5.5   C-121.6,91.9-127.1,80.7-127.1,69.1 M-128.4,69.1c0,13.4,7.3,26.4,19,33.7l0.5,0.3l0.3-0.5c0.1-0.1,0.1-0.3,0.1-0.3   c0-0.3-0.3-0.5-0.4-0.7l-0.7-0.7c-2.4-2.8-3-5.3-3-7.3c0-2.2,0.8-3.7,0.9-3.8l0.2-0.4l-0.3-0.3c-5-5.5-7.5-12.4-7.5-20   c0-16.7,13.6-30.4,30.4-30.4c4.6,0,9.1,1,13.2,3l0.4,0.2l6.1-7l-0.7-0.4c-5.8-3.2-12.4-5-19.2-5C-110.7,29.8-128.4,47.4-128.4,69.1   z"/>
	<path fill="#C4C4B8" d="M-75.2,40.6c-4.3-2.1-8.9-3.2-13.9-3.2c-17.4,0-31.6,14.2-31.6,31.6c0,7.9,2.8,15.1,7.9,20.9l0.5,0.6   l2.4-3.6l-0.1-0.1c-0.2,0-0.4-0.1-0.5-0.1c0-0.1,0.1-0.2,0.1-0.4c-0.2-0.2-0.4-0.5-0.5-0.7c-0.2,0.3-0.4,0.5-0.5,0.7   c-0.5-0.5-1.7-2-1.7-3.8c0-0.1,0-0.1,0-0.2c-2.2-4-3.4-8.4-3.4-13.3c0-15.1,12.3-27.4,27.4-27.4c3.7,0,7.3,0.7,10.7,2.2   c0.3-0.4,0.7-0.7,1.1-0.9c-3.7-1.7-7.6-2.5-11.7-2.5c-15.8,0-28.7,12.8-28.7,28.7c0,6.9,2.2,12.9,6.3,18c-0.3,0.4-0.6,0.9-1,1.5   c-4.6-5.4-7.1-12.1-7.1-19.4c0-16.7,13.6-30.4,30.4-30.4c4.4,0,8.7,0.9,12.7,2.8c-0.1,0.3-0.3,0.7-0.5,1.1c0.3-0.2,0.7-0.3,0.9-0.4   c0,0,0,0,0,0.1c0,0.5-0.1,1.3-0.6,2.4l0.1,0.1l1.7-3.8L-75.2,40.6"/>
	<path fill="#C4C4B8" d="M-75.4,34.5l-3,3.8c0.3,0.1,0.5,0.2,0.8,0.3l3-3.8C-74.9,34.7-75.2,34.6-75.4,34.5"/>
	<path fill="#C4C4B8" d="M-81.4,32.7l-1.7,4.4c0.3,0.1,0.5,0.1,0.8,0.1l1.7-4.4C-80.8,32.8-81.1,32.8-81.4,32.7"/>
	<path fill="#C4C4B8" d="M-88.4,31.9l-0.4,4.6c0.3,0,0.5,0,0.8,0l0.5-4.6C-87.9,32-88.1,31.9-88.4,31.9"/>
	<path fill="#C4C4B8" d="M-95.3,32.4l0.9,4.6c0.3-0.1,0.5-0.1,0.8-0.1l-0.9-4.6C-94.7,32.4-95,32.4-95.3,32.4"/>
	<path fill="#C4C4B8" d="M-101.9,34.3l2.1,4.2c0.3-0.1,0.5-0.2,0.8-0.3l-2.1-4.2C-101.4,34.1-101.7,34.1-101.9,34.3"/>
	<path fill="#C4C4B8" d="M-108.2,37.3l3.1,3.6c0.3-0.1,0.5-0.3,0.7-0.4l-3.1-3.6C-107.7,37-108,37.1-108.2,37.3"/>
	<path fill="#C4C4B8" d="M-114,41.6l3.9,2.7c0.2-0.2,0.5-0.4,0.7-0.5l-4-2.8C-113.6,41.2-113.8,41.4-114,41.6"/>
	<path fill="#C4C4B8" d="M-118.8,47l4.5,1.7c0.2-0.2,0.4-0.5,0.5-0.7l-4.5-1.7C-118.5,46.5-118.7,46.7-118.8,47"/>
	<path fill="#C4C4B8" d="M-122.6,53.2l4.8,0.7c0.1-0.3,0.3-0.5,0.4-0.8l-4.9-0.7C-122.4,52.7-122.5,52.9-122.6,53.2"/>
	<path fill="#C4C4B8" d="M-125.1,60.1l4.9-0.5c0.1-0.3,0.2-0.6,0.3-0.9l-5,0.5C-124.9,59.5-125,59.8-125.1,60.1"/>
	<path fill="#C4C4B8" d="M-126.1,67.3l4.8-1.7c0-0.3,0.1-0.6,0.1-0.9l-4.8,1.7C-126.1,66.7-126.1,66.9-126.1,67.3"/>
	<path fill="#C4C4B8" d="M-125.8,74.5l4.3-2.8c0-0.3-0.1-0.6-0.1-0.9l-4.4,2.9C-125.9,73.9-125.8,74.2-125.8,74.5"/>
	<path fill="#C4C4B8" d="M-123.9,81.6l3.5-3.8c-0.1-0.3-0.1-0.7-0.3-0.9l-3.6,4C-124.1,81.1-124.1,81.3-123.9,81.6"/>
	<path fill="#C4C4B8" d="M-120.6,88.4l2.5-4.7c-0.1-0.3-0.3-0.6-0.5-0.9l-2.6,4.8C-121,87.8-120.8,88.1-120.6,88.4"/>
	<path fill="#C4C4B8" d="M-116.4,94l1.3-5.4c-0.2-0.3-0.4-0.6-0.7-0.9l-1.3,5.6C-116.9,93.6-116.7,93.8-116.4,94"/>
	<path fill="#C4C4B8" d="M-76,45c0.1,0.1,0.2,0.1,0.3,0.2c0.1-0.1,0.2-0.1,0.3-0.1c0.1-0.1,0.3-0.1,0.3-0.1   c-0.3-0.2-0.5-0.3-0.7-0.5C-75.8,44.6-76,44.8-76,45"/>
</g>
</svg>